<svg id="visual" viewBox="0 0 900 600" width="900" height="600" xmlns="http://www.w3.org/2000/svg" xmlns:xlink="http://www.w3.org/1999/xlink" version="1.1"><rect x="0" y="0" width="900" height="600" fill="#2F0A28"></rect><path d="M0 419L129 447L257 375L386 427L514 392L643 445L771 440L900 412L900 601L771 601L643 601L514 601L386 601L257 601L129 601L0 601Z" fill="#ee4b6a"></path><path d="M0 424L129 418L257 475L386 399L514 410L643 479L771 414L900 400L900 601L771 601L643 601L514 601L386 601L257 601L129 601L0 601Z" fill="#e8297e"></path><path d="M0 476L129 467L257 493L386 506L514 464L643 437L771 447L900 486L900 601L771 601L643 601L514 601L386 601L257 601L129 601L0 601Z" fill="#d70098"></path><path d="M0 537L129 530L257 510L386 536L514 507L643 498L771 518L900 541L900 601L771 601L643 601L514 601L386 601L257 601L129 601L0 601Z" fill="#b500b7"></path><path d="M0 541L129 527L257 555L386 552L514 549L643 529L771 532L900 561L900 601L771 601L643 601L514 601L386 601L257 601L129 601L0 601Z" fill="#731dd8"></path></svg>